<?xml version="1.0" encoding="UTF-8"?>
<svg width="300px" height="114px" viewBox="0 0 300 114" version="1.1" xmlns="http://www.w3.org/2000/svg" xmlns:xlink="http://www.w3.org/1999/xlink">
    <!-- Generator: Sketch 55.2 (78181) - https://sketchapp.com -->
    <title>nuxeo-elements-catalog</title>
    <desc>Created with Sketch.</desc>
    <g id="Page-1" stroke="none" stroke-width="1" fill="none" fill-rule="evenodd">
        <g id="nuxeo-elements-catalog" fill-rule="nonzero">
            <path d="M108.542945,2.19325153 L108.542945,5.41411043 L108.680982,5.41411043 C110.567485,2.83742331 112.960123,1.45705521 116.226994,1.45705521 C121.656442,1.45705521 124.46319,5.09202454 124.46319,10.4754601 L124.46319,25.6595092 L115.766871,25.6595092 L115.766871,12.5920245 C115.766871,10.1533742 114.754601,8.54294479 112.5,8.54294479 C110.291411,8.54294479 108.957055,10.4754601 108.957055,13.006135 L108.957055,25.6595092 L100.260736,25.6595092 L100.260736,2.19325153 L108.542945,2.19325153 Z M151.334356,25.6595092 L143.052147,25.6595092 L143.052147,22.6226994 L142.91411,22.6226994 C141.119632,25.0613497 138.819018,26.3957055 135.59816,26.3957055 C129.984663,26.3957055 127.223926,22.7147239 127.223926,17.3312883 L127.223926,2.19325153 L135.920245,2.19325153 L135.920245,15.2607362 C135.920245,17.6993865 136.978528,18.9877301 139.04908,18.9877301 C141.303681,18.9877301 142.638037,17.3773006 142.638037,14.8466258 L142.638037,2.19325153 L151.334356,2.19325153 L151.334356,25.6595092 Z M153.174847,25.6595092 L160.95092,13.4662577 L153.819018,2.19325153 L163.803681,2.19325153 L166.564417,7.53067485 L166.656442,7.53067485 L169.371166,2.19325153 L178.619632,2.19325153 L171.90184,13.2822086 L179.539877,25.6595092 L169.555215,25.6595092 L166.242331,19.4018405 L166.150307,19.4018405 L162.653374,25.6595092 L153.174847,25.6595092 Z M191.411043,26.303681 C183.726994,26.303681 178.57362,21.0582822 178.57362,13.8803681 C178.57362,6.79447853 183.680982,1.41104294 191.088957,1.41104294 C194.769939,1.41104294 197.576687,2.60736196 199.739264,4.58588957 C202.592025,7.20858896 203.92638,11.3957055 203.834356,16.0429448 L187.08589,16.0429448 C187.592025,18.7576687 189.064417,20.4141104 191.687117,20.4141104 C193.205521,20.4141104 194.309816,19.8159509 194.953988,18.6656442 L203.374233,18.6656442 C202.868098,20.7822086 201.211656,22.8527607 198.911043,24.3251534 C196.748466,25.7055215 194.40184,26.303681 191.411043,26.303681 Z M191.273006,7.25460123 C188.880368,7.25460123 187.546012,8.86503067 187.08589,11.4417178 L195.184049,11.4417178 C194.815951,8.8190184 193.343558,7.25460123 191.273006,7.25460123 Z M217.91411,26.3957055 C210.092025,26.3957055 205.030675,21.1042945 205.030675,13.9723926 C205.030675,6.8404908 210.092025,1.50306748 217.91411,1.50306748 C225.736196,1.50306748 230.705521,6.8404908 230.705521,13.9723926 C230.705521,21.1042945 225.736196,26.3957055 217.91411,26.3957055 Z M217.822086,20.5981595 C220.490798,20.5981595 221.871166,17.9294479 221.871166,13.9723926 C221.871166,10.0153374 220.490798,7.34662577 217.822086,7.34662577 C215.153374,7.34662577 213.865031,10.0153374 213.865031,13.9723926 C213.865031,17.9294479 215.153374,20.5981595 217.822086,20.5981595 Z M112.131902,66.3343558 C104.447853,66.3343558 99.2944785,61.0889571 99.2944785,53.9110429 C99.2944785,46.8251534 104.40184,41.4417178 111.809816,41.4417178 C115.490798,41.4417178 118.297546,42.6380368 120.460123,44.6165644 C123.312883,47.2392638 124.647239,51.4263804 124.555215,56.0736196 L107.806748,56.0736196 C108.312883,58.7883436 109.785276,60.4447853 112.407975,60.4447853 C113.92638,60.4447853 115.030675,59.8466258 115.674847,58.696319 L124.095092,58.696319 C123.588957,60.8128834 121.932515,62.8834356 119.631902,64.3558282 C117.469325,65.7361963 115.122699,66.3343558 112.131902,66.3343558 Z M111.993865,47.2852761 C109.601227,47.2852761 108.266871,48.8957055 107.806748,51.4723926 L115.904908,51.4723926 C115.53681,48.8496933 114.064417,47.2852761 111.993865,47.2852761 Z M126.717791,65.690184 L126.717791,32.791411 L135.644172,32.791411 L135.644172,65.690184 L126.717791,65.690184 Z M150.644172,66.3343558 C142.960123,66.3343558 137.806748,61.0889571 137.806748,53.9110429 C137.806748,46.8251534 142.91411,41.4417178 150.322086,41.4417178 C154.003067,41.4417178 156.809816,42.6380368 158.972393,44.6165644 C161.825153,47.2392638 163.159509,51.4263804 163.067485,56.0736196 L146.319018,56.0736196 C146.825153,58.7883436 148.297546,60.4447853 150.920245,60.4447853 C152.43865,60.4447853 153.542945,59.8466258 154.187117,58.696319 L162.607362,58.696319 C162.101227,60.8128834 160.444785,62.8834356 158.144172,64.3558282 C155.981595,65.7361963 153.634969,66.3343558 150.644172,66.3343558 Z M150.506135,47.2852761 C148.113497,47.2852761 146.779141,48.8957055 146.319018,51.4723926 L154.417178,51.4723926 C154.04908,48.8496933 152.576687,47.2852761 150.506135,47.2852761 Z M165.230061,65.690184 L165.230061,42.2239264 L173.51227,42.2239264 L173.51227,45.7208589 L173.650307,45.7208589 C175.306748,43.006135 177.56135,41.4877301 181.104294,41.4877301 C184.233129,41.4877301 186.579755,43.006135 187.776074,45.5828221 L187.91411,45.5828221 C189.93865,42.4539877 192.56135,41.4877301 195.59816,41.4877301 C201.349693,41.4877301 203.834356,45.5368098 203.834356,50.9202454 L203.834356,65.690184 L195.138037,65.690184 L195.138037,52.5306748 C195.138037,50.1380368 194.355828,48.5736196 192.147239,48.5736196 C189.984663,48.5736196 188.880368,50.506135 188.880368,53.0368098 L188.880368,65.690184 L180.184049,65.690184 L180.184049,52.5306748 C180.184049,50.1380368 179.40184,48.5736196 177.193252,48.5736196 C175.030675,48.5736196 173.92638,50.506135 173.92638,53.0368098 L173.92638,65.690184 L165.230061,65.690184 Z M218.650307,66.3343558 C210.966258,66.3343558 205.812883,61.0889571 205.812883,53.9110429 C205.812883,46.8251534 210.920245,41.4417178 218.328221,41.4417178 C222.009202,41.4417178 224.815951,42.6380368 226.978528,44.6165644 C229.831288,47.2392638 231.165644,51.4263804 231.07362,56.0736196 L214.325153,56.0736196 C214.831288,58.7883436 216.303681,60.4447853 218.92638,60.4447853 C220.444785,60.4447853 221.54908,59.8466258 222.193252,58.696319 L230.613497,58.696319 C230.107362,60.8128834 228.45092,62.8834356 226.150307,64.3558282 C223.98773,65.7361963 221.641104,66.3343558 218.650307,66.3343558 Z M218.51227,47.2852761 C216.119632,47.2852761 214.785276,48.8957055 214.325153,51.4723926 L222.423313,51.4723926 C222.055215,48.8496933 220.582822,47.2852761 218.51227,47.2852761 Z M241.518405,42.2239264 L241.518405,45.4447853 L241.656442,45.4447853 C243.542945,42.8680982 245.935583,41.4877301 249.202454,41.4877301 C254.631902,41.4877301 257.43865,45.1226994 257.43865,50.506135 L257.43865,65.690184 L248.742331,65.690184 L248.742331,52.6226994 C248.742331,50.1840491 247.730061,48.5736196 245.47546,48.5736196 C243.266871,48.5736196 241.932515,50.506135 241.932515,53.0368098 L241.932515,65.690184 L233.236196,65.690184 L233.236196,42.2239264 L241.518405,42.2239264 Z M258.680982,47.4693252 L258.680982,42.2239264 L261.717791,42.2239264 L261.717791,34.6319018 L270.230061,34.6319018 L270.230061,42.2239264 L274.693252,42.2239264 L274.693252,47.4693252 L270.230061,47.4693252 L270.230061,56.993865 C270.230061,59.3404908 271.886503,59.3865031 274.601227,59.202454 L274.601227,65.5981595 C273.266871,65.9202454 271.886503,66.1503067 270.322086,66.1503067 C264.616564,66.1503067 261.717791,64.5398773 261.717791,58.9263804 L261.717791,47.4693252 L258.680982,47.4693252 Z M287.852761,66.4723926 C280.904908,66.4723926 276.07362,63.4815951 276.027607,58.0981595 L284.355828,58.0981595 C284.493865,60.0306748 285.690184,61.1809816 287.898773,61.1809816 C289.601227,61.1809816 290.889571,60.5828221 290.889571,59.1564417 C290.889571,57.2239264 288.174847,56.993865 285.138037,56.5337423 C281.180982,55.9355828 276.625767,54.8773006 276.625767,48.9877301 C276.625767,44.1564417 281.54908,41.4877301 287.300613,41.4877301 C294.432515,41.4877301 298.159509,44.1564417 298.481595,48.7576687 L290.291411,48.7576687 C290.06135,47.0092025 288.773006,46.6411043 287.346626,46.6411043 C286.058282,46.6411043 284.861963,47.1472393 284.861963,48.3435583 C284.861963,49.6779141 287.02454,49.9539877 289.693252,50.3220859 C293.972393,50.9202454 299.40184,51.8865031 299.40184,58.4202454 C299.40184,64.0337423 294.294479,66.4723926 287.852761,66.4723926 Z M112.177914,106.457055 C104.447853,106.457055 99.2944785,101.165644 99.2944785,94.0337423 C99.2944785,86.9018405 104.447853,81.5644172 112.177914,81.5644172 C118.803681,81.5644172 123.220859,85.4754601 123.819018,90.9509202 L115.444785,90.9509202 C114.984663,88.8343558 113.972393,87.6380368 112.08589,87.6380368 C109.417178,87.6380368 108.128834,90.0766871 108.128834,94.0337423 C108.128834,97.9447853 109.509202,100.337423 112.177914,100.337423 C114.294479,100.337423 115.352761,98.9110429 115.582822,96.2423313 L123.957055,96.2423313 C123.957055,102.039877 119.217791,106.457055 112.177914,106.457055 Z M141.165644,105.720859 C140.843558,105.168712 140.567485,104.432515 140.383436,103.144172 L140.291411,103.144172 C138.726994,105.306748 136.242331,106.319018 133.205521,106.319018 C128.696319,106.319018 125.383436,103.880368 125.383436,99.2791411 C125.383436,94.0797546 129.386503,92.5613497 133.895706,92.0552147 C138.865031,91.5030675 140.199387,90.904908 140.199387,89.4325153 C140.199387,88.1441718 139.601227,87.1779141 137.714724,87.1779141 C135.828221,87.1779141 134.861963,88.2822086 134.631902,89.9846626 L126.395706,89.9846626 C126.579755,85.3374233 130.168712,81.5184049 137.530675,81.5184049 C141.119632,81.5184049 143.420245,81.9785276 145.214724,83.0828221 C147.653374,84.601227 148.849693,86.993865 148.849693,90.1226994 L148.849693,101.855828 C148.849693,103.834356 148.98773,104.892638 149.723926,105.352761 L149.723926,105.720859 L141.165644,105.720859 Z M136.472393,101.165644 C138.496933,101.165644 140.429448,100.015337 140.429448,97.208589 L140.429448,95.1380368 C139.601227,95.5521472 138.542945,95.9202454 137.070552,96.2423313 C134.539877,96.7944785 133.757669,97.5306748 133.757669,98.9110429 C133.757669,100.47546 135.046012,101.165644 136.472393,101.165644 Z M150.690184,87.5 L150.690184,82.2546012 L153.726994,82.2546012 L153.726994,74.6625767 L162.239264,74.6625767 L162.239264,82.2546012 L166.702454,82.2546012 L166.702454,87.5 L162.239264,87.5 L162.239264,97.0245399 C162.239264,99.3711656 163.895706,99.4171779 166.610429,99.2331288 L166.610429,105.628834 C165.276074,105.95092 163.895706,106.180982 162.331288,106.180982 C156.625767,106.180982 153.726994,104.570552 153.726994,98.9570552 L153.726994,87.5 L150.690184,87.5 Z M184.141104,105.720859 C183.819018,105.168712 183.542945,104.432515 183.358896,103.144172 L183.266871,103.144172 C181.702454,105.306748 179.217791,106.319018 176.180982,106.319018 C171.671779,106.319018 168.358896,103.880368 168.358896,99.2791411 C168.358896,94.0797546 172.361963,92.5613497 176.871166,92.0552147 C181.840491,91.5030675 183.174847,90.904908 183.174847,89.4325153 C183.174847,88.1441718 182.576687,87.1779141 180.690184,87.1779141 C178.803681,87.1779141 177.837423,88.2822086 177.607362,89.9846626 L169.371166,89.9846626 C169.555215,85.3374233 173.144172,81.5184049 180.506135,81.5184049 C184.095092,81.5184049 186.395706,81.9785276 188.190184,83.0828221 C190.628834,84.601227 191.825153,86.993865 191.825153,90.1226994 L191.825153,101.855828 C191.825153,103.834356 191.96319,104.892638 192.699387,105.352761 L192.699387,105.720859 L184.141104,105.720859 Z M179.447853,101.165644 C181.472393,101.165644 183.404908,100.015337 183.404908,97.208589 L183.404908,95.1380368 C182.576687,95.5521472 181.518405,95.9202454 180.046012,96.2423313 C177.515337,96.7944785 176.733129,97.5306748 176.733129,98.9110429 C176.733129,100.47546 178.021472,101.165644 179.447853,101.165644 Z M195.138037,105.720859 L195.138037,72.8220859 L204.064417,72.8220859 L204.064417,105.720859 L195.138037,105.720859 Z M219.110429,106.457055 C211.288344,106.457055 206.226994,101.165644 206.226994,94.0337423 C206.226994,86.9018405 211.288344,81.5644172 219.110429,81.5644172 C226.932515,81.5644172 231.90184,86.9018405 231.90184,94.0337423 C231.90184,101.165644 226.932515,106.457055 219.110429,106.457055 Z M219.018405,100.659509 C221.687117,100.659509 223.067485,97.9907975 223.067485,94.0337423 C223.067485,90.0766871 221.687117,87.4079755 219.018405,87.4079755 C216.349693,87.4079755 215.06135,90.0766871 215.06135,94.0337423 C215.06135,97.9907975 216.349693,100.659509 219.018405,100.659509 Z M245.567485,113.911043 C238.98773,113.911043 234.386503,111.334356 233.558282,106.134969 L241.932515,106.134969 C242.254601,107.101227 243.358896,108.113497 245.429448,108.113497 C248.236196,108.113497 249.202454,106.457055 249.202454,104.018405 L249.202454,101.90184 L249.018405,101.90184 C247.638037,103.466258 245.797546,104.570552 243.082822,104.570552 C237.745399,104.570552 233.09816,100.843558 233.09816,93.4815951 C233.09816,86.7638037 236.917178,81.5184049 242.668712,81.5184049 C245.981595,81.5184049 248.006135,82.8067485 249.340491,84.8312883 L249.478528,84.8312883 L249.478528,82.2546012 L257.760736,82.2546012 L257.760736,102.91411 C257.760736,106.687117 256.380368,109.58589 254.309816,111.334356 C252.147239,113.174847 249.064417,113.911043 245.567485,113.911043 Z M245.567485,98.4969325 C248.09816,98.4969325 249.570552,96.196319 249.570552,93.1134969 C249.570552,90.1687117 248.09816,87.8220859 245.567485,87.8220859 C243.128834,87.8220859 241.564417,89.9386503 241.564417,93.1134969 C241.564417,96.2423313 243.128834,98.4969325 245.567485,98.4969325 Z" id="nuxeoelementscatalog" fill="#000000"></path>
            <path d="M3.24384934,97.0219866 L0.00376585109,10.4286077 C-0.103241397,7.56876802 2.08300153,5.1450873 4.9307108,4.9665698 L78.3634422,0.363211406 C81.2620704,0.181501918 83.7587356,2.39107159 83.9398999,5.29842339 C83.9467256,5.40796119 83.9501406,5.51768599 83.9501406,5.62743754 L83.9501406,99.986238 C83.9501406,102.899263 81.5957531,105.260736 78.6914689,105.260736 C78.6127908,105.260736 78.5341226,105.258965 78.4555234,105.255424 L8.26287536,102.093361 C5.5291493,101.970211 3.34647681,99.7647731 3.24384934,97.0219866 L3.24384934,97.0219866 Z" id="path-1" fill="#0066FF"></path>
            <path d="M61.9908375,13.2476222 L62.4924231,1.14750071 L72.5769451,0.352760736 L73.0113944,12.8311975 C73.0265139,13.2654759 72.6877752,13.6298219 72.2548002,13.6449873 C72.0694056,13.6514809 71.8877158,13.5918643 71.7419929,13.4767237 L67.8530773,10.4039546 L63.2486962,13.9071702 C62.9035282,14.169789 62.4114585,14.1020277 62.1496278,13.7558211 C62.0394101,13.6100853 61.9832613,13.4303853 61.9908375,13.2476222 L61.9908375,13.2476222 Z" id="path2_fill-path" fill="#72D2CF"></path>
            <polygon id="Fill-4" fill="#72D1CF" points="20.3956725 29.7269939 20.3956725 39.2101761 34.2129304 53.0690184 20.3956725 66.9276326 20.3956725 76.4110429 29.8503998 76.4110429 43.6676577 62.5522005 57.4846883 76.4110429 66.939643 76.4110429 66.939643 66.9276326 53.122385 53.0690184 66.939643 39.2101761 66.939643 29.7269939 57.4846883 29.7269939 43.6676577 43.5858362 29.8503998 29.7269939"></polygon>
        </g>
    </g>
</svg>